<?xml version="1.0" encoding="UTF-8"?>
<svg version="1.1" xmlns="http://www.w3.org/2000/svg" width="100" height="100">
<path d="M0 0 C1.8871875 0.00773437 1.8871875 0.00773437 3.8125 0.015625 C5.070625 0.01046875 6.32875 0.0053125 7.625 0 C10.8125 0.265625 10.8125 0.265625 12.8125 2.265625 C12.8125 5.235625 12.8125 8.205625 12.8125 11.265625 C18.7525 11.265625 24.6925 11.265625 30.8125 11.265625 C30.8125 8.295625 30.8125 5.325625 30.8125 2.265625 C32.8125 0.265625 32.8125 0.265625 36 0 C37.8871875 0.00773437 37.8871875 0.00773437 39.8125 0.015625 C41.070625 0.01046875 42.32875 0.0053125 43.625 0 C46.8125 0.265625 46.8125 0.265625 48.8125 2.265625 C49.0078125 4.4296875 49.0078125 4.4296875 48.9375 6.890625 C48.91945313 7.70789063 48.90140625 8.52515625 48.8828125 9.3671875 C48.85960938 9.99367188 48.83640625 10.62015625 48.8125 11.265625 C49.79089844 11.17861328 49.79089844 11.17861328 50.7890625 11.08984375 C58.81840855 10.67534949 58.81840855 10.67534949 62.375 13.640625 C66.11454101 17.66782301 65.94815793 19.76718041 65.98950195 25.20629883 C65.99607315 25.92032364 66.00264435 26.63434845 66.00941467 27.37001038 C66.02915642 29.73756003 66.04081232 32.10504622 66.05078125 34.47265625 C66.05485678 35.28099096 66.0589323 36.08932568 66.06313133 36.92215538 C66.0839961 41.20078654 66.09829587 45.47938559 66.10766602 49.75805664 C66.11872969 54.17672725 66.15312753 58.59489416 66.19283772 63.01338673 C66.2189882 66.41148309 66.22735644 69.80945918 66.23094749 73.20764732 C66.23581777 74.83633513 66.2474444 76.4650174 66.26598549 78.09360695 C66.29034412 80.37506588 66.28941861 82.65521832 66.2824707 84.93676758 C66.28833694 86.23423416 66.29420319 87.53170074 66.30024719 88.8684845 C65.73163439 92.82885089 64.60656397 94.45980204 61.8125 97.265625 C58.87648818 98.73363091 55.90785166 98.43018141 52.68823242 98.44262695 C51.95470047 98.44919815 51.22116852 98.45576935 50.46540833 98.46253967 C48.03292747 98.48228317 45.60050838 98.49393767 43.16796875 98.50390625 C41.92236899 98.51001954 41.92236899 98.51001954 40.65160561 98.51625633 C36.25626498 98.53712175 31.86095562 98.5514213 27.46557617 98.56079102 C22.92584334 98.57185536 18.38660068 98.60625387 13.84704113 98.64596272 C10.35629872 98.67211005 6.86567342 98.68048117 3.37484169 98.68407249 C1.70149742 98.68894351 0.02815856 98.7005722 -1.6450901 98.71911049 C-3.98880448 98.74346244 -6.33124663 98.74254473 -8.67504883 98.7355957 C-9.36458649 98.74840576 -10.05412415 98.76121582 -10.76455688 98.77441406 C-15.49383789 98.72337852 -17.86223209 97.59511117 -21.1875 94.265625 C-22.66546057 91.30970387 -22.34753213 88.64009487 -22.38037109 85.34082031 C-22.38854858 84.62840179 -22.39672607 83.91598328 -22.40515137 83.18197632 C-22.43000621 80.81924277 -22.44652299 78.45656937 -22.4609375 76.09375 C-22.46626118 75.28666344 -22.47158485 74.47957687 -22.47706985 73.64803314 C-22.50380398 69.37474009 -22.52317654 65.10147625 -22.53759766 60.828125 C-22.55423122 56.41840406 -22.59899659 52.00943257 -22.6499691 47.59999466 C-22.68366243 44.2061479 -22.69517739 40.81247842 -22.70082474 37.41847992 C-22.70753331 35.79338617 -22.72274531 34.16830392 -22.74671555 32.54337311 C-22.77841248 30.26430166 -22.77839818 27.9872427 -22.77099609 25.70800781 C-22.77908295 24.41276184 -22.7871698 23.11751587 -22.79550171 21.78302002 C-21.99627703 17.15936705 -20.46959695 15.55890463 -17.1875 12.265625 C-14.66274538 11.00324769 -12.87549534 11.16706096 -10.0625 11.203125 C-9.15242188 11.21214844 -8.24234375 11.22117187 -7.3046875 11.23046875 C-6.60601562 11.24207031 -5.90734375 11.25367188 -5.1875 11.265625 C-5.21070312 10.63914062 -5.23390625 10.01265625 -5.2578125 9.3671875 C-5.27585937 8.54992188 -5.29390625 7.73265625 -5.3125 6.890625 C-5.33570312 6.07851562 -5.35890625 5.26640625 -5.3828125 4.4296875 C-5.04249369 0.65895513 -3.58487026 0.29873919 0 0 Z " fill="#F1EFF5" transform="translate(28.1875,0.734375)"/>
<path d="M0 0 C1.8871875 0.00773437 1.8871875 0.00773437 3.8125 0.015625 C5.070625 0.01046875 6.32875 0.0053125 7.625 0 C10.8125 0.265625 10.8125 0.265625 12.8125 2.265625 C12.8125 5.235625 12.8125 8.205625 12.8125 11.265625 C18.7525 11.265625 24.6925 11.265625 30.8125 11.265625 C30.8125 8.295625 30.8125 5.325625 30.8125 2.265625 C32.8125 0.265625 32.8125 0.265625 36 0 C37.8871875 0.00773437 37.8871875 0.00773437 39.8125 0.015625 C41.070625 0.01046875 42.32875 0.0053125 43.625 0 C46.8125 0.265625 46.8125 0.265625 48.8125 2.265625 C49.0078125 4.4296875 49.0078125 4.4296875 48.9375 6.890625 C48.91945313 7.70789063 48.90140625 8.52515625 48.8828125 9.3671875 C48.85960938 9.99367188 48.83640625 10.62015625 48.8125 11.265625 C49.79089844 11.17861328 49.79089844 11.17861328 50.7890625 11.08984375 C58.81840855 10.67534949 58.81840855 10.67534949 62.375 13.640625 C66.11454101 17.66782301 65.94815793 19.76718041 65.98950195 25.20629883 C65.99607315 25.92032364 66.00264435 26.63434845 66.00941467 27.37001038 C66.02915642 29.73756003 66.04081232 32.10504622 66.05078125 34.47265625 C66.05485678 35.28099096 66.0589323 36.08932568 66.06313133 36.92215538 C66.0839961 41.20078654 66.09829587 45.47938559 66.10766602 49.75805664 C66.11872969 54.17672725 66.15312753 58.59489416 66.19283772 63.01338673 C66.2189882 66.41148309 66.22735644 69.80945918 66.23094749 73.20764732 C66.23581777 74.83633513 66.2474444 76.4650174 66.26598549 78.09360695 C66.29034412 80.37506588 66.28941861 82.65521832 66.2824707 84.93676758 C66.28833694 86.23423416 66.29420319 87.53170074 66.30024719 88.8684845 C65.73163439 92.82885089 64.60656397 94.45980204 61.8125 97.265625 C58.87648818 98.73363091 55.90785166 98.43018141 52.68823242 98.44262695 C51.95470047 98.44919815 51.22116852 98.45576935 50.46540833 98.46253967 C48.03292747 98.48228317 45.60050838 98.49393767 43.16796875 98.50390625 C41.92236899 98.51001954 41.92236899 98.51001954 40.65160561 98.51625633 C36.25626498 98.53712175 31.86095562 98.5514213 27.46557617 98.56079102 C22.92584334 98.57185536 18.38660068 98.60625387 13.84704113 98.64596272 C10.35629872 98.67211005 6.86567342 98.68048117 3.37484169 98.68407249 C1.70149742 98.68894351 0.02815856 98.7005722 -1.6450901 98.71911049 C-3.98880448 98.74346244 -6.33124663 98.74254473 -8.67504883 98.7355957 C-9.36458649 98.74840576 -10.05412415 98.76121582 -10.76455688 98.77441406 C-15.49383789 98.72337852 -17.86223209 97.59511117 -21.1875 94.265625 C-22.74727064 91.14608372 -22.30854126 87.83603116 -22.28515625 84.4140625 C-22.2837413 83.64003082 -22.28232635 82.86599915 -22.28086853 82.06851196 C-22.27526403 79.59251058 -22.26271083 77.11659912 -22.25 74.640625 C-22.24498558 72.96354297 -22.24042257 71.28645953 -22.23632812 69.609375 C-22.22529315 65.49475694 -22.20802554 61.38020622 -22.1875 57.265625 C-21.1975 57.595625 -20.2075 57.925625 -19.1875 58.265625 C-19.1781543 59.2443457 -19.16880859 60.22306641 -19.15917969 61.23144531 C-19.11924542 64.86976291 -19.05347866 68.50723791 -18.97998047 72.14501953 C-18.95179046 73.71815144 -18.93056602 75.29142447 -18.91650391 76.86474609 C-18.89504558 79.12931456 -18.84838652 81.39219004 -18.796875 83.65625 C-18.79564636 84.35743958 -18.79441772 85.05862915 -18.79315186 85.78106689 C-18.69943416 88.91970025 -18.46084349 90.8924887 -16.58514404 93.45297241 C-13.35502312 95.89498922 -11.30677369 95.76071898 -7.27929688 95.75146484 C-6.59263443 95.75526154 -5.90597198 95.75905823 -5.19850159 95.76296997 C-2.93394956 95.77036546 -0.67068753 95.74900919 1.59375 95.7265625 C3.17028655 95.72417732 4.74682598 95.72327291 6.32336426 95.7237854 C9.6254255 95.72065913 12.92705202 95.70410789 16.22900391 95.67724609 C20.45927886 95.64326635 24.6890763 95.63561764 28.91947174 95.63713646 C32.17430165 95.6365923 35.4290274 95.62561784 38.68382263 95.61113358 C40.24351717 95.60477429 41.8032235 95.60082871 43.3629303 95.59934616 C45.54358976 95.59500381 47.72374584 95.57748342 49.90429688 95.55615234 C51.76483704 95.54471695 51.76483704 95.54471695 53.66296387 95.53305054 C56.65337592 95.27913615 58.351542 94.9359687 60.8125 93.265625 C62.05589976 90.77882548 61.97077487 89.04765412 62.01782227 86.26513672 C62.03800415 85.20963623 62.05818604 84.15413574 62.07897949 83.06665039 C62.09545532 81.95410889 62.11193115 80.84156738 62.12890625 79.6953125 C62.14755737 78.6751001 62.1662085 77.6548877 62.1854248 76.60375977 C62.25386362 72.78280522 62.3139221 68.9617043 62.375 65.140625 C62.519375 56.601875 62.66375 48.063125 62.8125 39.265625 C35.7525 39.265625 8.6925 39.265625 -19.1875 39.265625 C-19.1875 42.895625 -19.1875 46.525625 -19.1875 50.265625 C-19.8475 50.265625 -20.5075 50.265625 -21.1875 50.265625 C-21.1875 50.925625 -21.1875 51.585625 -21.1875 52.265625 C-20.5275 52.265625 -19.8675 52.265625 -19.1875 52.265625 C-19.5175 53.585625 -19.8475 54.905625 -20.1875 56.265625 C-20.8475 56.265625 -21.5075 56.265625 -22.1875 56.265625 C-22.3114816 50.96379041 -22.40201776 45.66280706 -22.4621582 40.35986328 C-22.48723866 38.55763034 -22.52131188 36.75549849 -22.56469727 34.95361328 C-22.6256375 32.35684223 -22.65377346 29.76142035 -22.67578125 27.1640625 C-22.70158768 26.3638266 -22.7273941 25.5635907 -22.75398254 24.73910522 C-22.75603707 20.60271308 -22.43067292 18.04515412 -19.78198242 14.77197266 C-16.27341568 11.38259219 -14.80448769 11.14233029 -10.0625 11.203125 C-9.15242188 11.21214844 -8.24234375 11.22117187 -7.3046875 11.23046875 C-6.60601562 11.24207031 -5.90734375 11.25367188 -5.1875 11.265625 C-5.21070312 10.63914062 -5.23390625 10.01265625 -5.2578125 9.3671875 C-5.27585937 8.54992188 -5.29390625 7.73265625 -5.3125 6.890625 C-5.33570312 6.07851562 -5.35890625 5.26640625 -5.3828125 4.4296875 C-5.04249369 0.65895513 -3.58487026 0.29873919 0 0 Z " fill="#181615" transform="translate(28.1875,0.734375)"/>
<path d="M0 0 C0.77730469 0.05800781 1.55460937 0.11601562 2.35546875 0.17578125 C3.14566406 0.22089844 3.93585937 0.26601562 4.75 0.3125 C5.34167969 0.37050781 5.93335938 0.42851562 6.54296875 0.48828125 C7.20296875 2.13828125 7.86296875 3.78828125 8.54296875 5.48828125 C13.16296875 5.48828125 17.78296875 5.48828125 22.54296875 5.48828125 C23.20296875 3.83828125 23.86296875 2.18828125 24.54296875 0.48828125 C30.48296875 0.48828125 36.42296875 0.48828125 42.54296875 0.48828125 C43.20296875 2.13828125 43.86296875 3.78828125 44.54296875 5.48828125 C49.16296875 5.48828125 53.78296875 5.48828125 58.54296875 5.48828125 C59.20296875 3.83828125 59.86296875 2.18828125 60.54296875 0.48828125 C61.9360048 0.35170909 63.33302996 0.25556976 64.73046875 0.17578125 C65.50777344 0.11777344 66.28507812 0.05976563 67.0859375 0 C69.54296875 0.48828125 69.54296875 0.48828125 74.54296875 5.48828125 C74.54296875 11.09828125 74.54296875 16.70828125 74.54296875 22.48828125 C47.48296875 22.48828125 20.42296875 22.48828125 -7.45703125 22.48828125 C-7.45703125 1.48192195 -7.45703125 1.48192195 0 0 Z " fill="#FAB675" transform="translate(16.45703125,14.51171875)"/>
<path d="M0 0 C2.76544722 3.45680903 4.84921278 7.14341602 7 11 C7.52464844 10.34902344 8.04929687 9.69804688 8.58984375 9.02734375 C11.72622142 6.38912655 13.51347454 6.493404 17.5625 6.5625 C19.26599609 6.56443359 19.26599609 6.56443359 21.00390625 6.56640625 C24 7 24 7 25.87890625 8.33984375 C27.6352522 10.94070448 27.38085148 12.95318812 27 16 C25.83203125 17.67578125 25.83203125 17.67578125 24 19 C21.30078125 19.29296875 21.30078125 19.29296875 18.3125 19.1875 C16.82169922 19.14689453 16.82169922 19.14689453 15.30078125 19.10546875 C14.54152344 19.07066406 13.78226563 19.03585938 13 19 C13.33 19.66 13.66 20.32 14 21 C16.51963422 21.35672241 19.01333243 21.44375117 21.5546875 21.55859375 C24.40561849 22.07321867 25.33749249 22.65293057 27 25 C27.43076923 31.13846154 27.43076923 31.13846154 26 34 C26.53625 34.2475 27.0725 34.495 27.625 34.75 C30 36 30 36 32.56494141 38.04003906 C36.99384284 40.56706257 40.32892615 40.60208599 45.3359375 40.609375 C46.21528961 40.62591125 47.09464172 40.64244751 48.00064087 40.65948486 C50.79216592 40.70782914 53.58314676 40.72930535 56.375 40.75 C58.27476676 40.77817108 60.17450832 40.8081001 62.07421875 40.83984375 C66.716101 40.91358434 71.35768355 40.96324173 76 41 C76 41.33 76 41.66 76 42 C66.82920997 42.11592091 57.65867265 42.20472845 48.48730946 42.25906086 C44.22849945 42.28513973 39.97019117 42.32050551 35.71166992 42.37719727 C31.6008328 42.43157963 27.49047782 42.46143341 23.3793087 42.47438622 C21.8119822 42.48361508 20.24468168 42.50163749 18.67756081 42.52865028 C16.47953192 42.56502658 14.28348721 42.56994225 12.08520508 42.56762695 C10.83500076 42.57873001 9.58479645 42.58983307 8.29670715 42.60127258 C4.07616965 41.83150646 2.60959972 40.34080759 0 37 C-0.50834217 34.26387319 -0.72266833 32.12858001 -0.70703125 29.3984375 C-0.72215256 28.68015778 -0.73727386 27.96187805 -0.75285339 27.22183228 C-0.79562128 24.93923424 -0.80454964 22.65795796 -0.8125 20.375 C-0.83565792 18.83329818 -0.86102596 17.29162787 -0.88867188 15.75 C-0.96984108 10.83322633 -1 5.91748306 -1 1 C-0.67 0.67 -0.34 0.34 0 0 Z " fill="#D7D6DB" transform="translate(9,55)"/>
<path d="M0 0 C1.73056641 -0.02513672 1.73056641 -0.02513672 3.49609375 -0.05078125 C6.5625 0.3125 6.5625 0.3125 8.44921875 1.61328125 C10.32686815 4.47916718 9.91695484 7.00425487 9.5625 10.3125 C8.44921875 12.01171875 8.44921875 12.01171875 6.5625 13.3125 C3.49609375 13.67578125 3.49609375 13.67578125 0 13.625 C-1.15628906 13.62113281 -2.31257813 13.61726563 -3.50390625 13.61328125 C-6.4375 13.3125 -6.4375 13.3125 -8.4375 11.3125 C-8.703125 9.21875 -8.703125 9.21875 -8.6875 6.8125 C-8.69265625 6.0184375 -8.6978125 5.224375 -8.703125 4.40625 C-8.05912348 -0.6699973 -4.19139764 0.01401805 0 0 Z " fill="#2B3434" transform="translate(26.4375,76.6875)"/>
<path d="M0 0 C1.15628906 0.00386719 2.31257813 0.00773437 3.50390625 0.01171875 C6.4375 0.3125 6.4375 0.3125 8.4375 2.3125 C8.703125 4.40625 8.703125 4.40625 8.6875 6.8125 C8.69265625 7.6065625 8.6978125 8.400625 8.703125 9.21875 C8.4375 11.3125 8.4375 11.3125 6.4375 13.3125 C3.50390625 13.61328125 3.50390625 13.61328125 0 13.625 C-1.73056641 13.65013672 -1.73056641 13.65013672 -3.49609375 13.67578125 C-6.5625 13.3125 -6.5625 13.3125 -8.44921875 12.01171875 C-10.32686815 9.14583282 -9.91695484 6.62074513 -9.5625 3.3125 C-7.10763293 -0.43440237 -4.21239046 -0.06118556 0 0 Z " fill="#CC6565" transform="translate(73.5625,76.6875)"/>
<path d="M0 0 C1.8871875 0.00773437 1.8871875 0.00773437 3.8125 0.015625 C5.070625 0.01046875 6.32875 0.0053125 7.625 0 C10.8125 0.265625 10.8125 0.265625 12.8125 2.265625 C13.078125 4.140625 13.078125 4.140625 13.0625 6.265625 C13.06765625 6.966875 13.0728125 7.668125 13.078125 8.390625 C12.8125 10.265625 12.8125 10.265625 10.8125 12.265625 C7.625 12.53125 7.625 12.53125 3.8125 12.515625 C2.554375 12.52078125 1.29625 12.5259375 0 12.53125 C-3.1875 12.265625 -3.1875 12.265625 -5.1875 10.265625 C-5.453125 8.390625 -5.453125 8.390625 -5.4375 6.265625 C-5.44265625 5.564375 -5.4478125 4.863125 -5.453125 4.140625 C-4.94627893 0.56288802 -3.3761352 0.2813446 0 0 Z " fill="#66B7B7" transform="translate(46.1875,61.734375)"/>
<path d="M0 0 C1.15628906 0.00515625 2.31257813 0.0103125 3.50390625 0.015625 C4.65761719 0.01046875 5.81132813 0.0053125 7 0 C10.06640625 0.265625 10.06640625 0.265625 13.06640625 2.265625 C13.4296875 4.140625 13.4296875 4.140625 13.37890625 6.265625 C13.37503906 6.966875 13.37117188 7.668125 13.3671875 8.390625 C13.06640625 10.265625 13.06640625 10.265625 11.06640625 12.265625 C7.87890625 12.53125 7.87890625 12.53125 4.06640625 12.515625 C2.80828125 12.52078125 1.55015625 12.5259375 0.25390625 12.53125 C-2.93359375 12.265625 -2.93359375 12.265625 -4.93359375 10.265625 C-5.19921875 8.390625 -5.19921875 8.390625 -5.18359375 6.265625 C-5.18875 5.564375 -5.19390625 4.863125 -5.19921875 4.140625 C-4.71409814 0.71624425 -3.25167099 0.2944256 0 0 Z " fill="#050707" transform="translate(45.93359375,45.734375)"/>
<path d="M0 0 C1.73056641 -0.02513672 1.73056641 -0.02513672 3.49609375 -0.05078125 C6.5625 0.3125 6.5625 0.3125 8.453125 1.609375 C10.29704741 4.44018546 9.85930871 7.04760418 9.5625 10.3125 C7.5625 12.3125 7.5625 12.3125 4.12109375 12.54296875 C2.74732696 12.53897911 1.37355886 12.52423177 0 12.5 C-0.69802734 12.49935547 -1.39605469 12.49871094 -2.11523438 12.49804688 C-7.29718842 12.45281158 -7.29718842 12.45281158 -8.4375 11.3125 C-8.60546875 9.31640625 -8.60546875 9.31640625 -8.625 6.875 C-8.63917969 6.07191406 -8.65335938 5.26882812 -8.66796875 4.44140625 C-8.11401156 -0.67565593 -4.19325349 0.01402426 0 0 Z " fill="#090C0D" transform="translate(26.4375,45.6875)"/>
<path d="M0 0 C1.15628906 0.00386719 2.31257813 0.00773437 3.50390625 0.01171875 C6.4375 0.3125 6.4375 0.3125 8.4375 2.3125 C8.66796875 4.44140625 8.66796875 4.44140625 8.625 6.875 C8.61855469 7.68066406 8.61210938 8.48632812 8.60546875 9.31640625 C8.4375 11.3125 8.4375 11.3125 7.4375 12.3125 C4.94511431 12.43903198 2.49279559 12.49769825 0 12.5 C-1.04124023 12.51836914 -1.04124023 12.51836914 -2.10351562 12.53710938 C-3.92470901 12.54239842 -5.7453692 12.43419207 -7.5625 12.3125 C-9.5625 10.3125 -9.5625 10.3125 -9.875 6.875 C-9.5625 3.3125 -9.5625 3.3125 -8.453125 1.609375 C-5.65191685 -0.31211489 -3.35631475 -0.04875094 0 0 Z " fill="#25191A" transform="translate(73.5625,45.6875)"/>
<path d="M0 0 C3.1875 -0.36328125 3.1875 -0.36328125 7 -0.3125 C8.8871875 -0.30669922 8.8871875 -0.30669922 10.8125 -0.30078125 C14 0 14 0 16 2 C16.265625 3.875 16.265625 3.875 16.25 6 C16.25515625 6.70125 16.2603125 7.4025 16.265625 8.125 C16 10 16 10 14 12 C11.06640625 12.30078125 11.06640625 12.30078125 7.5625 12.3125 C5.83193359 12.33763672 5.83193359 12.33763672 4.06640625 12.36328125 C1 12 1 12 -0.890625 10.66796875 C-2.60655558 8.08803087 -2.3140656 6.01502975 -2 3 C-1.34 2.01 -0.68 1.02 0 0 Z " fill="#060404" transform="translate(66,62)"/>
<path d="M0 0 C1.8871875 0.00773437 1.8871875 0.00773437 3.8125 0.015625 C5.070625 0.01046875 6.32875 0.0053125 7.625 0 C10.8125 0.265625 10.8125 0.265625 12.8125 2.265625 C13.3731889 8.43320291 13.3731889 8.43320291 11.66796875 10.96484375 C9.02426912 12.81821633 7.0110314 12.66414361 3.8125 12.640625 C2.760625 12.64835937 1.70875 12.65609375 0.625 12.6640625 C-2.1875 12.265625 -2.1875 12.265625 -4.04296875 10.96484375 C-5.940546 8.14762155 -5.48553847 5.54404812 -5.1875 2.265625 C-3.1875 0.265625 -3.1875 0.265625 0 0 Z " fill="#1F2828" transform="translate(46.1875,77.734375)"/>
<path d="M0 0 C1.73056641 -0.02513672 1.73056641 -0.02513672 3.49609375 -0.05078125 C6.5625 0.3125 6.5625 0.3125 8.44921875 1.64453125 C10.19044328 4.25331326 9.94335872 6.26563022 9.5625 9.3125 C8.44921875 10.98046875 8.44921875 10.98046875 6.5625 12.3125 C3.49609375 12.67578125 3.49609375 12.67578125 0 12.625 C-1.15628906 12.62113281 -2.31257813 12.61726563 -3.50390625 12.61328125 C-6.4375 12.3125 -6.4375 12.3125 -8.4375 10.3125 C-8.703125 8.4375 -8.703125 8.4375 -8.6875 6.3125 C-8.69265625 5.61125 -8.6978125 4.91 -8.703125 4.1875 C-8.00886117 -0.71318585 -3.9934735 0.0133561 0 0 Z " fill="#050606" transform="translate(26.4375,61.6875)"/>
<path d="M0 0 C0.89589844 0.01417969 1.79179688 0.02835937 2.71484375 0.04296875 C4.06255859 0.05263672 4.06255859 0.05263672 5.4375 0.0625 C7.65234375 0.23046875 7.65234375 0.23046875 8.65234375 1.23046875 C8.72506116 3.5836043 8.73605243 5.93880543 8.71484375 8.29296875 C8.70582031 9.58332031 8.69679688 10.87367187 8.6875 12.203125 C8.67589844 13.20214844 8.66429688 14.20117188 8.65234375 15.23046875 C6.67324977 15.25733428 4.69405404 15.2768025 2.71484375 15.29296875 C1.61269531 15.30457031 0.51054688 15.31617188 -0.625 15.328125 C-3.34765625 15.23046875 -3.34765625 15.23046875 -4.34765625 14.23046875 C-4.47280553 12.25427428 -4.52338385 10.27308702 -4.53515625 8.29296875 C-4.54933594 7.21144531 -4.56351563 6.12992188 -4.578125 5.015625 C-4.28519398 1.47562812 -3.61333455 0.35472003 0 0 Z " fill="#C5D1DA" transform="translate(65.34765625,2.76953125)"/>
<path d="M0 0 C0.89589844 -0.01417969 1.79179688 -0.02835937 2.71484375 -0.04296875 C5.0625 0.1875 5.0625 0.1875 7.0625 2.1875 C7.29296875 4.97265625 7.29296875 4.97265625 7.25 8.25 C7.24033203 9.87615234 7.24033203 9.87615234 7.23046875 11.53515625 C7.0625 14.1875 7.0625 14.1875 6.0625 15.1875 C4.04285801 15.25994053 2.02082876 15.27127188 0 15.25 C-1.10472656 15.24097656 -2.20945312 15.23195313 -3.34765625 15.22265625 C-4.62962891 15.20525391 -4.62962891 15.20525391 -5.9375 15.1875 C-5.96435412 12.87506208 -5.98382841 10.5625373 -6 8.25 C-6.01160156 6.96222656 -6.02320312 5.67445312 -6.03515625 4.34765625 C-5.88214261 -0.60386507 -4.50246863 0.03229891 0 0 Z " fill="#C5D1DA" transform="translate(31.9375,2.8125)"/>
<path d="M0 0 C1.50046875 0.00386719 1.50046875 0.00386719 3.03125 0.0078125 C4.0315625 0.00523438 5.031875 0.00265625 6.0625 0 C8.53125 0.1328125 8.53125 0.1328125 9.53125 1.1328125 C9.65625 4.1328125 9.65625 4.1328125 9.53125 7.1328125 C8.53125 8.1328125 8.53125 8.1328125 6.0625 8.265625 C4.56203125 8.26175781 4.56203125 8.26175781 3.03125 8.2578125 C2.0309375 8.26039062 1.030625 8.26296875 0 8.265625 C-2.46875 8.1328125 -2.46875 8.1328125 -3.46875 7.1328125 C-3.59375 4.1328125 -3.59375 4.1328125 -3.46875 1.1328125 C-2.46875 0.1328125 -2.46875 0.1328125 0 0 Z " fill="#E26161" transform="translate(70.46875,63.8671875)"/>
<path d="M0 0 C1.50046875 0.00386719 1.50046875 0.00386719 3.03125 0.0078125 C4.0315625 0.00523438 5.031875 0.00265625 6.0625 0 C8.53125 0.1328125 8.53125 0.1328125 9.53125 1.1328125 C9.65625 4.1328125 9.65625 4.1328125 9.53125 7.1328125 C8.53125 8.1328125 8.53125 8.1328125 6.0625 8.265625 C4.56203125 8.26175781 4.56203125 8.26175781 3.03125 8.2578125 C2.0309375 8.26039062 1.030625 8.26296875 0 8.265625 C-2.46875 8.1328125 -2.46875 8.1328125 -3.46875 7.1328125 C-3.59375 4.1328125 -3.59375 4.1328125 -3.46875 1.1328125 C-2.46875 0.1328125 -2.46875 0.1328125 0 0 Z " fill="#6BC2C2" transform="translate(23.46875,63.8671875)"/>
<path d="M0 0 C1.8871875 0.00773437 1.8871875 0.00773437 3.8125 0.015625 C5.070625 0.01046875 6.32875 0.0053125 7.625 0 C10.8125 0.265625 10.8125 0.265625 12.8125 2.265625 C13.078125 4.140625 13.078125 4.140625 13.0625 6.265625 C13.06765625 6.966875 13.0728125 7.668125 13.078125 8.390625 C12.8125 10.265625 12.8125 10.265625 10.8125 12.265625 C7.625 12.53125 7.625 12.53125 3.8125 12.515625 C2.554375 12.52078125 1.29625 12.5259375 0 12.53125 C-3.1875 12.265625 -3.1875 12.265625 -5.1875 10.265625 C-5.453125 8.390625 -5.453125 8.390625 -5.4375 6.265625 C-5.44265625 5.564375 -5.4478125 4.863125 -5.453125 4.140625 C-4.94627893 0.56288802 -3.3761352 0.2813446 0 0 Z M-3.1875 3.265625 C-3.35416667 6.265625 -3.35416667 6.265625 -3.1875 9.265625 C-2.10580354 10.57110255 -2.10580354 10.57110255 0.5 10.3984375 C1.593125 10.39585938 2.68625 10.39328125 3.8125 10.390625 C4.905625 10.39320312 5.99875 10.39578125 7.125 10.3984375 C9.73080354 10.57110255 9.73080354 10.57110255 10.8125 9.265625 C10.97916667 6.265625 10.97916667 6.265625 10.8125 3.265625 C9.73080354 1.96014745 9.73080354 1.96014745 7.125 2.1328125 C6.031875 2.13539062 4.93875 2.13796875 3.8125 2.140625 C2.719375 2.13804688 1.62625 2.13546875 0.5 2.1328125 C-2.10580354 1.96014745 -2.10580354 1.96014745 -3.1875 3.265625 Z " fill="#020202" transform="translate(46.1875,61.734375)"/>
<path d="M0 0 C2.14576637 -0.02685938 4.29162645 -0.04633088 6.4375 -0.0625 C7.63246094 -0.07410156 8.82742187 -0.08570312 10.05859375 -0.09765625 C13 0 13 0 14 1 C14.16796875 2.99609375 14.16796875 2.99609375 14.1875 5.4375 C14.20167969 6.24058594 14.21585938 7.04367188 14.23046875 7.87109375 C14 10 14 10 12 12 C9.03125 12.265625 9.03125 12.265625 5.5 12.25 C4.3346875 12.25515625 3.169375 12.2603125 1.96875 12.265625 C-1 12 -1 12 -3 10 C-3.125 6.375 -3.125 6.375 -3 3 C-2.67 3 -2.34 3 -2 3 C-1.67 4.65 -1.34 6.3 -1 8 C3.29 8.33 7.58 8.66 12 9 C11.67 7.02 11.34 5.04 11 3 C7.04 2.67 3.08 2.34 -1 2 C-0.67 1.34 -0.34 0.68 0 0 Z " fill="#352829" transform="translate(68,78)"/>
<path d="M0 0 C1.093125 0.00257812 2.18625 0.00515625 3.3125 0.0078125 C4.405625 0.00523438 5.49875 0.00265625 6.625 0 C9.3125 0.1328125 9.3125 0.1328125 10.3125 1.1328125 C10.4375 3.6328125 10.4375 3.6328125 10.3125 6.1328125 C9.3125 7.1328125 9.3125 7.1328125 6.625 7.265625 C5.531875 7.26304688 4.43875 7.26046875 3.3125 7.2578125 C2.219375 7.26039062 1.12625 7.26296875 0 7.265625 C-2.6875 7.1328125 -2.6875 7.1328125 -3.6875 6.1328125 C-3.8125 3.6328125 -3.8125 3.6328125 -3.6875 1.1328125 C-2.6875 0.1328125 -2.6875 0.1328125 0 0 Z " fill="#6FC8C8" transform="translate(46.6875,79.8671875)"/>
<path d="M0 0 C1.093125 0.00257812 2.18625 0.00515625 3.3125 0.0078125 C4.405625 0.00523438 5.49875 0.00265625 6.625 0 C9.3125 0.1328125 9.3125 0.1328125 10.3125 1.1328125 C10.4375 3.6328125 10.4375 3.6328125 10.3125 6.1328125 C9.3125 7.1328125 9.3125 7.1328125 6.625 7.265625 C5.531875 7.26304688 4.43875 7.26046875 3.3125 7.2578125 C2.219375 7.26039062 1.12625 7.26296875 0 7.265625 C-2.6875 7.1328125 -2.6875 7.1328125 -3.6875 6.1328125 C-3.8125 3.6328125 -3.8125 3.6328125 -3.6875 1.1328125 C-2.6875 0.1328125 -2.6875 0.1328125 0 0 Z " fill="#6EC7C7" transform="translate(46.6875,48.8671875)"/>
<path d="M0 0 C4.29 0 8.58 0 13 0 C13 2.31 13 4.62 13 7 C8.71 7 4.42 7 0 7 C0 4.69 0 2.38 0 0 Z " fill="#6AB9B7" transform="translate(20,80)"/>
<path d="M0 0 C4.29 0 8.58 0 13 0 C13 1.98 13 3.96 13 6 C12 7 12 7 9.27734375 7.09765625 C7.62412109 7.08025391 7.62412109 7.08025391 5.9375 7.0625 C4.83277344 7.05347656 3.72804688 7.04445313 2.58984375 7.03515625 C1.30787109 7.01775391 1.30787109 7.01775391 0 7 C0 4.69 0 2.38 0 0 Z " fill="#F16767" transform="translate(67,49)"/>
<path d="M0 0 C4.29 0 8.58 0 13 0 C13 2.31 13 4.62 13 7 C11.02090602 7.02686553 9.04171029 7.04633375 7.0625 7.0625 C5.96035156 7.07410156 4.85820312 7.08570313 3.72265625 7.09765625 C1 7 1 7 0 6 C0 4.02 0 2.04 0 0 Z " fill="#72CECE" transform="translate(20,49)"/>
<path d="M0 0 C2.10388569 -0.05402274 4.20816714 -0.09280256 6.3125 -0.125 C8.07013672 -0.15980469 8.07013672 -0.15980469 9.86328125 -0.1953125 C13 0 13 0 16 2 C16 2.66 16 3.32 16 4 C10.06 4 4.12 4 -2 4 C-1.34 2.68 -0.68 1.36 0 0 Z " fill="#283031" transform="translate(43,46)"/>
<path d="M0 0 C1.77503906 0.03480469 1.77503906 0.03480469 3.5859375 0.0703125 C5.36871094 0.09738281 5.36871094 0.09738281 7.1875 0.125 C8.10273438 0.14820313 9.01796875 0.17140625 9.9609375 0.1953125 C9.9609375 0.8553125 9.9609375 1.5153125 9.9609375 2.1953125 C4.0209375 2.6903125 4.0209375 2.6903125 -2.0390625 3.1953125 C-2.0390625 6.1653125 -2.0390625 9.1353125 -2.0390625 12.1953125 C-3.0290625 11.5353125 -4.0190625 10.8753125 -5.0390625 10.1953125 C-5.40234375 8.3203125 -5.40234375 8.3203125 -5.3515625 6.1953125 C-5.34576172 5.1434375 -5.34576172 5.1434375 -5.33984375 4.0703125 C-4.78005014 0.58068999 -3.3365637 0.21443211 0 0 Z " fill="#040505" transform="translate(23.0390625,61.8046875)"/>
<path d="M0 0 C1.09054688 0.02320312 2.18109375 0.04640625 3.3046875 0.0703125 C4.40039062 0.08835937 5.49609375 0.10640625 6.625 0.125 C7.46804687 0.14820312 8.31109375 0.17140625 9.1796875 0.1953125 C9.1796875 0.5253125 9.1796875 0.8553125 9.1796875 1.1953125 C8.46941406 1.25589844 7.75914063 1.31648438 7.02734375 1.37890625 C6.10824219 1.46269531 5.18914063 1.54648438 4.2421875 1.6328125 C3.32566406 1.71402344 2.40914062 1.79523438 1.46484375 1.87890625 C-0.78190982 1.95576226 -0.78190982 1.95576226 -1.8203125 3.1953125 C-1.98697917 5.6953125 -1.98697917 5.6953125 -1.8203125 8.1953125 C-0.15688413 9.85874087 1.9622584 9.55579347 4.2421875 9.7578125 C5.16128906 9.84160156 6.08039062 9.92539063 7.02734375 10.01171875 C7.73761719 10.07230469 8.44789062 10.13289063 9.1796875 10.1953125 C9.1796875 10.5253125 9.1796875 10.8553125 9.1796875 11.1953125 C4.8896875 11.1953125 0.5996875 11.1953125 -3.8203125 11.1953125 C-5.32693347 8.18207055 -4.99801623 5.51244873 -4.8203125 2.1953125 C-2.8203125 0.1953125 -2.8203125 0.1953125 0 0 Z " fill="#060707" transform="translate(45.8203125,77.8046875)"/>
<path d="M0 0 C1.77503906 0.03480469 1.77503906 0.03480469 3.5859375 0.0703125 C5.36871094 0.09738281 5.36871094 0.09738281 7.1875 0.125 C8.10273438 0.14820313 9.01796875 0.17140625 9.9609375 0.1953125 C9.6309375 1.1853125 9.3009375 2.1753125 8.9609375 3.1953125 C5.0009375 3.1953125 1.0409375 3.1953125 -3.0390625 3.1953125 C-3.3690625 4.8453125 -3.6990625 6.4953125 -4.0390625 8.1953125 C-4.3690625 8.1953125 -4.6990625 8.1953125 -5.0390625 8.1953125 C-5.1640625 5.3203125 -5.1640625 5.3203125 -5.0390625 2.1953125 C-3.0390625 0.1953125 -3.0390625 0.1953125 0 0 Z " fill="#2A3536" transform="translate(23.0390625,45.8046875)"/>
<path d="M0 0 C2.10353495 -0.0810206 4.20795952 -0.13919907 6.3125 -0.1875 C7.48425781 -0.22230469 8.65601563 -0.25710937 9.86328125 -0.29296875 C13 0 13 0 14.90625 1.28125 C16.67636968 4.06286664 16.18099954 6.80234145 16 10 C15.01 9.67 14.02 9.34 13 9 C13 7.02 13 5.04 13 3 C10.43106162 1.71553081 8.23423663 1.67022856 5.375 1.4375 C4.37210938 1.35371094 3.36921875 1.26992187 2.3359375 1.18359375 C1.56507812 1.12300781 0.79421875 1.06242187 0 1 C0 0.67 0 0.34 0 0 Z " fill="#545658" transform="translate(20,77)"/>
<path d="M0 0 C1.79244141 0.01740234 1.79244141 0.01740234 3.62109375 0.03515625 C5.41740234 0.04869141 5.41740234 0.04869141 7.25 0.0625 C8.17683594 0.07410156 9.10367187 0.08570312 10.05859375 0.09765625 C9.72859375 0.75765625 9.39859375 1.41765625 9.05859375 2.09765625 C5.42859375 2.09765625 1.79859375 2.09765625 -1.94140625 2.09765625 C-2.27140625 4.07765625 -2.60140625 6.05765625 -2.94140625 8.09765625 C-3.27140625 8.09765625 -3.60140625 8.09765625 -3.94140625 8.09765625 C-3.98382348 5.7647085 -3.98233562 3.43063058 -3.94140625 1.09765625 C-2.94140625 0.09765625 -2.94140625 0.09765625 0 0 Z " fill="#070A0A" transform="translate(21.94140625,77.90234375)"/>
<path d="M0 0 C4.29 0 8.58 0 13 0 C13.33 1.32 13.66 2.64 14 4 C13.01 3.67 12.02 3.34 11 3 C8.94106379 2.77674186 6.87766347 2.59294241 4.8125 2.4375 C3.18248047 2.31181641 3.18248047 2.31181641 1.51953125 2.18359375 C0.68808594 2.12300781 -0.14335938 2.06242187 -1 2 C-0.67 1.34 -0.34 0.68 0 0 Z " fill="#120A0A" transform="translate(68,78)"/>
<path d="M0 0 C0.66 0.33 1.32 0.66 2 1 C1.67 1.66 1.34 2.32 1 3 C0.85624578 6.37822416 0.92463652 8.77390955 2 12 C0.68 11.34 -0.64 10.68 -2 10 C-2.1953125 3.9453125 -2.1953125 3.9453125 -2 2 C-1.34 1.34 -0.68 0.68 0 0 Z " fill="#121212" transform="translate(43,62)"/>
<path d="M0 0 C1.98 0 3.96 0 6 0 C6 1.98 6 3.96 6 6 C1.125 3.375 1.125 3.375 0 0 Z " fill="#75CBCB" transform="translate(27,80)"/>
<path d="M0 0 C0.66 0.33 1.32 0.66 2 1 C1.67 3.64 1.34 6.28 1 9 C0.01 9 -0.98 9 -2 9 C-2.25 3.375 -2.25 3.375 0 0 Z " fill="#322B2C" transform="translate(66,62)"/>
<path d="M0 0 C1.79244141 0.01740234 1.79244141 0.01740234 3.62109375 0.03515625 C5.41740234 0.04869141 5.41740234 0.04869141 7.25 0.0625 C8.17683594 0.07410156 9.10367188 0.08570313 10.05859375 0.09765625 C10.05859375 0.42765625 10.05859375 0.75765625 10.05859375 1.09765625 C6.42859375 1.42765625 2.79859375 1.75765625 -0.94140625 2.09765625 C-1.60140625 4.07765625 -2.26140625 6.05765625 -2.94140625 8.09765625 C-3.27140625 8.09765625 -3.60140625 8.09765625 -3.94140625 8.09765625 C-3.98382348 5.7647085 -3.98233562 3.43063058 -3.94140625 1.09765625 C-2.94140625 0.09765625 -2.94140625 0.09765625 0 0 Z " fill="#010101" transform="translate(68.94140625,46.90234375)"/>
<path d="M0 0 C0.33 0 0.66 0 1 0 C1.66 1.98 2.32 3.96 3 6 C6.3 6.33 9.6 6.66 13 7 C13 7.33 13 7.66 13 8 C11.02090602 8.02686553 9.04171029 8.04633375 7.0625 8.0625 C5.96035156 8.07410156 4.85820313 8.08570312 3.72265625 8.09765625 C1 8 1 8 0 7 C-0.04092937 4.66702567 -0.04241723 2.33294775 0 0 Z " fill="#020101" transform="translate(65,81)"/>
<path d="M0 0 C2.14576637 -0.02685938 4.29162645 -0.04633088 6.4375 -0.0625 C7.63246094 -0.07410156 8.82742187 -0.08570313 10.05859375 -0.09765625 C13 0 13 0 14 1 C14.04080783 2.99958364 14.04254356 5.00045254 14 7 C13.690625 6.360625 13.38125 5.72125 13.0625 5.0625 C12.1654837 3.06389179 12.1654837 3.06389179 11 2 C9.15108054 1.76636119 7.29511969 1.58696365 5.4375 1.4375 C4.42558594 1.35371094 3.41367187 1.26992188 2.37109375 1.18359375 C1.19740234 1.09271484 1.19740234 1.09271484 0 1 C0 0.67 0 0.34 0 0 Z " fill="#010101" transform="translate(21,47)"/>
<path d="M0 0 C0.33 0 0.66 0 1 0 C1.04254356 1.99954746 1.04080783 4.00041636 1 6 C0 7 0 7 -2.72265625 7.09765625 C-4.37587891 7.08025391 -4.37587891 7.08025391 -6.0625 7.0625 C-7.16722656 7.05347656 -8.27195312 7.04445313 -9.41015625 7.03515625 C-10.69212891 7.01775391 -10.69212891 7.01775391 -12 7 C-12 6.67 -12 6.34 -12 6 C-8.7 5.67 -5.4 5.34 -2 5 C-1.34 3.35 -0.68 1.7 0 0 Z " fill="#010202" transform="translate(34,82)"/>
<path d="M0 0 C0.99 0.33 1.98 0.66 3 1 C3 2.98 3 4.96 3 7 C3.66 7 4.32 7 5 7 C5 7.66 5 8.32 5 9 C1.125 8.125 1.125 8.125 0 7 C-0.04092937 4.66702567 -0.04241723 2.33294775 0 0 Z " fill="#3A3334" transform="translate(64,49)"/>
<path d="M0 0 C0.125 3.375 0.125 3.375 0 7 C-0.66 7.66 -1.32 8.32 -2 9 C-2.99 8.67 -3.98 8.34 -5 8 C-4.40138258 5.64828869 -3.73075648 3.3140622 -3 1 C-1 0 -1 0 0 0 Z " fill="#343839" transform="translate(36,49)"/>
<path d="M0 0 C0.33 0 0.66 0 1 0 C1 2.64 1 5.28 1 8 C-0.98 8.99 -0.98 8.99 -3 10 C-2.01 6.7 -1.02 3.4 0 0 Z " fill="#131314" transform="translate(58,64)"/>
<path d="M0 0 C0.66 0 1.32 0 2 0 C3.35439668 2.70879335 3.06501451 5.00933268 3 8 C2.01 7.67 1.02 7.34 0 7 C-0.38133299 5.0085944 -0.71325582 3.00720923 -1 1 C-0.67 0.67 -0.34 0.34 0 0 Z " fill="#373D3F" transform="translate(33,63)"/>
</svg>
